<svg xmlns="http://www.w3.org/2000/svg" xmlns:xlink="http://www.w3.org/1999/xlink" width="186.151" height="207.817" viewBox="0 0 186.151 207.817">
  <defs>
    <linearGradient id="linear-gradient" x1="0.815" y1="-0.015" x2="-0.184" y2="1.346" gradientUnits="objectBoundingBox">
      <stop offset="0" stop-color="#9d30f5"/>
      <stop offset="0.675" stop-color="#cc1d92"/>
      <stop offset="0.935" stop-color="#18702f"/>
      <stop offset="1" stop-color="#32124c"/>
    </linearGradient>
  </defs>
  <g id="Group_1" data-name="Group 1" transform="translate(-305.349 -1057.683)">
    <g id="Path_6" data-name="Path 6" transform="matrix(0.719, -0.695, 0.695, 0.719, 306.325, 1147.903)" fill="url(#linear-gradient)">
      <path d="M 116.6479110717773 127.0923080444336 L 116.6474914550781 127.0923080444336 L 11.83624362945557 127.0829238891602 C 8.62697696685791 127.0826263427734 5.60969352722168 125.8326110839844 3.340193510055542 123.5631256103516 C 1.070693492889404 121.2936248779297 -0.1793398559093475 118.2763595581055 -0.1796231865882874 115.0671081542969 L -0.1888731867074966 11.82157611846924 C -0.1891565173864365 8.612592697143555 1.060193419456482 5.595726013183594 3.329026699066162 3.326709270477295 C 5.597843647003174 1.057709217071533 8.614593505859375 -0.1918741762638092 11.82355976104736 -0.1918741762638092 L 116.6351928710938 -0.1824741661548615 C 119.8444595336914 -0.1821908354759216 122.8617401123047 1.067825794219971 125.1312408447266 3.337309122085571 C 127.4007415771484 5.606809139251709 128.6507568359375 8.624075889587402 128.6510467529297 11.83330917358398 L 128.6603240966797 115.0788421630859 C 128.6606140136719 118.287841796875 127.411262512207 121.3047103881836 125.1424407958984 123.5737228393555 C 122.8736267089844 125.8427276611328 119.8568801879883 127.0923080444336 116.6479110717773 127.0923080444336 Z" stroke="none"/>
      <path d="M 11.82356262207031 0.3081207275390625 C 8.748146057128906 0.3081207275390625 5.856956481933594 1.505699157714844 3.682579040527344 3.68023681640625 C 1.5081787109375 5.854804992675781 0.3108367919921875 8.746101379394531 0.311126708984375 11.821533203125 L 0.3203887939453125 115.0670700073242 C 0.3206634521484375 118.1427688598633 1.5186767578125 121.0345001220703 3.693740844726563 123.2095489501953 C 5.868827819824219 125.3846206665039 8.76055908203125 126.582633972168 11.83627319335938 126.5829162597656 L 116.6478958129883 126.5923004150391 C 119.7232971191406 126.5923004150391 122.6144790649414 125.3947143554688 124.7888565063477 123.2201843261719 C 126.9632415771484 121.0456161499023 128.1605987548828 118.1543197631836 128.1603240966797 115.0788879394531 L 128.1510467529297 11.83333587646484 C 128.1507720947266 8.757637023925781 126.9527587890625 5.865921020507813 124.7776794433594 3.690864562988281 C 122.6026077270508 1.515800476074219 119.7108764648438 0.3177871704101563 116.6351623535156 0.3175201416015625 L 11.82469177246094 0.3081207275390625 L 11.82356262207031 0.3081207275390625 M 11.82355499267578 -0.6918792724609375 C 11.823974609375 -0.6918792724609375 11.82427215576172 -0.6918792724609375 11.82469177246094 -0.6918792724609375 L 116.6352462768555 -0.6824798583984375 C 123.5469131469727 -0.6818618774414063 129.1504211425781 4.921615600585938 129.1510467529297 11.833251953125 L 129.1603240966797 115.0788040161133 C 129.1609039306641 121.9900131225586 123.5589981079102 127.5923004150391 116.6478958129883 127.5923004150391 C 116.6474761962891 127.5923004150391 116.6471481323242 127.5923004150391 116.646728515625 127.5923004150391 L 11.83619689941406 127.5829162597656 C 4.924530029296875 127.5822830200195 -0.6790008544921875 121.9788055419922 -0.6796112060546875 115.0671539306641 L -0.688873291015625 11.82161712646484 C -0.6894989013671875 4.910408020019531 4.912467956542969 -0.6918792724609375 11.82355499267578 -0.6918792724609375 Z" stroke="none" fill="#707070"/>
    </g>
    <text id="SBN_Bank" data-name="SBN Bank" transform="translate(396.491 1157)" fill="#dbd4e8" font-size="30" font-family="Algerian"><tspan x="-70.986" y="0">SBN Bank</tspan></text>
    <g id="Ellipse_2" data-name="Ellipse 2" transform="translate(380 1099)" fill="rgba(63,36,116,0.93)" stroke="#707070" stroke-width="1">
      <ellipse cx="16.5" cy="15.5" rx="16.5" ry="15.5" stroke="none"/>
      <ellipse cx="16.5" cy="15.5" rx="16" ry="15" fill="none"/>
    </g>
    <g id="Path_7" data-name="Path 7" transform="matrix(-0.574, 0.819, -0.819, -0.574, 399.31, 1110.109)" fill="#f6ff00">
      <path d="M 2.136229038238525 5.938597679138184 C 1.749389052391052 5.938597679138184 1.392499089241028 5.780178070068359 1.104139089584351 5.480447769165039 C 0.6939390301704407 5.054088115692139 0.4745990633964539 4.397547721862793 0.5023690462112427 3.67917799949646 C 0.5540690422058105 2.341807842254639 1.473889112472534 1.158477902412415 2.510959148406982 1.095187902450562 L 12.21950912475586 0.5026978850364685 C 12.24888896942139 0.5009078979492188 12.27852916717529 0.4999978840351105 12.30761909484863 0.4999978840351105 C 12.69445896148682 0.4999978840351105 13.05134868621826 0.6584178805351257 13.33970928192139 0.9581378698348999 C 13.74989891052246 1.384497880935669 13.96923923492432 2.041037797927856 13.94146919250488 2.759417772293091 C 13.88976860046387 4.096787929534912 12.9699592590332 5.280117988586426 11.93288898468018 5.343408107757568 L 2.224339008331299 5.935897827148438 C 2.194959163665771 5.937687873840332 2.165318965911865 5.938597679138184 2.136229038238525 5.938597679138184 Z" stroke="none"/>
      <path d="M 12.30761909484863 0.9999980926513672 C 12.28861904144287 0.9999980926513672 12.26923942565918 1.000597953796387 12.24995899200439 1.001768112182617 L 2.54141902923584 1.594257831573486 C 1.762848854064941 1.641777992248535 1.043489456176758 2.625067949295044 1.001989364624023 3.698487997055054 C 0.9794492721557617 4.281737804412842 1.148009300231934 4.804887771606445 1.464448928833008 5.133797645568848 C 1.659039497375488 5.336048126220703 1.885048866271973 5.438597679138184 2.136219024658203 5.438597679138184 C 2.155219078063965 5.438597679138184 2.174598693847656 5.437997817993164 2.193879127502441 5.436827659606934 L 11.90242958068848 4.844337940216064 C 12.68099880218506 4.796817779541016 13.40034866333008 3.813527822494507 13.44184875488281 2.740107774734497 C 13.46438884735107 2.156857967376709 13.2958288192749 1.633708000183105 12.97938919067383 1.304797649383545 C 12.78479957580566 1.102548122406006 12.55878925323486 0.9999980926513672 12.30761909484863 0.9999980926513672 M 12.30762004852295 -2.86102294921875e-06 C 13.55565643310547 -2.86102294921875e-06 14.50152111053467 1.215484619140625 14.44109916687012 2.778727769851685 C 14.37876892089844 4.391077995300293 13.26944923400879 5.762767791748047 11.96334934234619 5.842477798461914 L 2.254789352416992 6.434967994689941 C 2.215009689331055 6.437395572662354 2.175423622131348 6.4385986328125 2.136218070983887 6.4385986328125 C 0.8881816864013672 6.4385986328125 -0.05768299102783203 5.223111152648926 0.00273895263671875 3.659868001937866 C 0.06506919860839844 2.047517776489258 1.174399375915527 0.6758279800415039 2.480499267578125 0.5961179733276367 L 12.18904876708984 0.003627777099609375 C 12.22882843017578 0.001200199127197266 12.26841449737549 -2.86102294921875e-06 12.30762004852295 -2.86102294921875e-06 Z" stroke="none" fill="#707070"/>
    </g>
    <g id="Path_8" data-name="Path 8" transform="matrix(-0.574, 0.819, -0.819, -0.574, 408.31, 1110.109)" fill="#f67008">
      <path d="M 2.136229038238525 5.938597679138184 C 1.749389052391052 5.938597679138184 1.392499089241028 5.780178070068359 1.104139089584351 5.480447769165039 C 0.6939390301704407 5.054088115692139 0.4745990633964539 4.397547721862793 0.5023690462112427 3.67917799949646 C 0.5540690422058105 2.341807842254639 1.473889112472534 1.158477902412415 2.510959148406982 1.095187902450562 L 12.21950912475586 0.5026978850364685 C 12.24888896942139 0.5009078979492188 12.27852916717529 0.4999978840351105 12.30761909484863 0.4999978840351105 C 12.69445896148682 0.4999978840351105 13.05134868621826 0.6584178805351257 13.33970928192139 0.9581378698348999 C 13.74989891052246 1.384497880935669 13.96923923492432 2.041037797927856 13.94146919250488 2.759417772293091 C 13.88976860046387 4.096787929534912 12.9699592590332 5.280117988586426 11.93288898468018 5.343408107757568 L 2.224339008331299 5.935897827148438 C 2.194959163665771 5.937687873840332 2.165318965911865 5.938597679138184 2.136229038238525 5.938597679138184 Z" stroke="none"/>
      <path d="M 12.30761909484863 0.9999980926513672 C 12.28861904144287 0.9999980926513672 12.26923942565918 1.000597953796387 12.24995899200439 1.001768112182617 L 2.54141902923584 1.594257831573486 C 1.762848854064941 1.641777992248535 1.043489456176758 2.625067949295044 1.001989364624023 3.698487997055054 C 0.9794492721557617 4.281737804412842 1.148009300231934 4.804887771606445 1.464448928833008 5.133797645568848 C 1.659039497375488 5.336048126220703 1.885048866271973 5.438597679138184 2.136219024658203 5.438597679138184 C 2.155219078063965 5.438597679138184 2.174598693847656 5.437997817993164 2.193879127502441 5.436827659606934 L 11.90242958068848 4.844337940216064 C 12.68099880218506 4.796817779541016 13.40034866333008 3.813527822494507 13.44184875488281 2.740107774734497 C 13.46438884735107 2.156857967376709 13.2958288192749 1.633708000183105 12.97938919067383 1.304797649383545 C 12.78479957580566 1.102548122406006 12.55878925323486 0.9999980926513672 12.30761909484863 0.9999980926513672 M 12.30762004852295 -2.86102294921875e-06 C 13.55565643310547 -2.86102294921875e-06 14.50152111053467 1.215484619140625 14.44109916687012 2.778727769851685 C 14.37876892089844 4.391077995300293 13.26944923400879 5.762767791748047 11.96334934234619 5.842477798461914 L 2.254789352416992 6.434967994689941 C 2.215009689331055 6.437395572662354 2.175423622131348 6.4385986328125 2.136218070983887 6.4385986328125 C 0.8881816864013672 6.4385986328125 -0.05768299102783203 5.223111152648926 0.00273895263671875 3.659868001937866 C 0.06506919860839844 2.047517776489258 1.174399375915527 0.6758279800415039 2.480499267578125 0.5961179733276367 L 12.18904876708984 0.003627777099609375 C 12.22882843017578 0.001200199127197266 12.26841449737549 -2.86102294921875e-06 12.30762004852295 -2.86102294921875e-06 Z" stroke="none" fill="#707070"/>
    </g>
    <text id="Lets_Make_Brighter_Society" data-name="Lets Make Brighter Society" transform="translate(308.5 1236.5)" fill="#fff" stroke="#fff" stroke-width="1" font-size="15" font-family="SegoeUI, Segoe UI"><tspan x="3.252" y="16">Lets Make Brighter Society</tspan></text>
  </g>
</svg>
